PathFileType	4	(X/Y/Z)	C:/Users/beibeiliu/ov580/test_trc\sequence.4_training_dense_left.trc
DataRate	CameraRate	NumFrames	NumMarkers	Units	OrigDataRate	OrigDataStartFrame	OrigNumFrames
120	120	21	19	mm	120	226	258
Frame#	Time	ThumbCMC			ThumbMCP			ThumbIP			ThumbTip			IndexMCP			IndexPIP			IndexTip			MiddleMCP			MiddlePIP			MiddleTip			RingMCP			RingPIP			RingTip			PinkyMCP			PinkyPIP			PinkyTip			BackHand1			BackHand2			BackHand3	
		X0	Y0	Z0	X1	Y1	Z1	X2	Y2	Z2	X3	Y3	Z3	X4	Y4	Z4	X5	Y5	Z5	X6	Y6	Z6	X7	Y7	Z7	X8	Y8	Z8	X9	Y9	Z9	X10	Y10	Z10	X11	Y11	Z11	X12	Y12	Z12	X13	Y13	Z13	X14	Y14	Z14	X15	Y15	Z15	X16	Y16	Z16	X17	Y17	Z17	X18	Y18	Z18	
225	1.875	-161.751	-9.9624	18.8473	-144.629	-14.7706	3.20352	-137.11	-17.6763	-13.6258	-118.992	-16.2433	-29.4708	-166.216	-15.8914	-51.8564	-158.168	-21.3905	-70.2992	-158.128	-23.7411	-88.7729	-188.869	-16.1422	-53.9108	-192.363	-22.6174	-78.5584	-189.669	-27.2414	-102.582	-211.905	-19.3696	-51.2662	-209.75	-23.7786	-71.3249	-214.274	-27.7587	-88.7828	-227.491	-22.9054	-37.3877	-235.227	-27.8134	-52.4311	-243.745	-28.3031	-71.2534	-209.999	-0.883398	-6.62746	-210.528	4.8447	19.932	-183.575	3.35996	3.55959	
226	1.88333	-160.978	-11.4725	18.2271	-148.237	-18.1081	0.898941	-130.956	-17.6206	-17.1061	-118.935	-17.3162	-30.3167	-165.371	-17.5156	-48.1773	-159.35	-22.0054	-69.6951	-154.794	-24.091	-88.3343	-188.258	-18.4745	-55.9412	-188.984	-24.4825	-81.0839	-187.858	-29.4061	-104.535	-207.084	-21.239	-50.8926	-212.109	-26.3649	-70.3129	-211.433	-29.603	-92.3748	-230.034	-24.8193	-37.023	-236.586	-30.3599	-52.0991	-238.353	-30.7402	-69.3891	-211.95	-4.6374	-9.3322	-208.122	3.75032	16.9487	-185.515	2.51912	5.31854	
227	1.89167	-164.529	-14.0189	20.5133	-148.576	-18.8716	2.48352	-135.465	-20.9042	-15.8373	-121.057	-20.4807	-29.4398	-165.313	-18.3604	-46.3398	-157.942	-22.118	-65.8085	-152.472	-25.7488	-89.8817	-186.163	-20.0507	-55.6365	-185.784	-25.1787	-80.6839	-186.479	-29.6618	-104.154	-210.423	-22.98	-51.6075	-209.278	-27.1714	-71.7641	-211.95	-31.4882	-92.6148	-225.958	-27.0015	-33.6406	-233.794	-31.5121	-48.6282	-241.654	-31.8867	-66.6332	-207.033	-4.3909	-9.85788	-210.503	0.571314	17.4371	-181.452	2.46083	2.79475	
228	1.9	-163.305	-14.5078	21.5075	-148.244	-21.2588	5.79744	-135.322	-23.5358	-13.5323	-117.302	-22.0033	-24.731	-165.761	-20.1629	-49.2868	-159.125	-23.5184	-66.3842	-150.395	-25.1654	-89.8891	-186.879	-21.4616	-55.9381	-186.984	-27.0602	-78.7716	-188.039	-31.3836	-100.97	-210.781	-25.0269	-46.0712	-207.351	-29.2169	-70.4056	-208.649	-32.8232	-87.1318	-228.076	-29.2264	-32.5934	-234.926	-33.4622	-53.4769	-236.132	-36.1099	-71.1189	-209.974	-7.29444	-7.48469	-209.17	0.584749	17.6878	-182.29	0.223581	6.17438	
229	1.90833	-164.302	-16.7323	20.8095	-146.829	-23.0485	6.45163	-134.552	-24.5465	-13.086	-116.953	-22.5147	-27.6295	-161.423	-19.7459	-45.4856	-156.646	-24.1385	-65.6257	-151.965	-26.2587	-86.0189	-184.835	-21.938	-52.0926	-183.634	-27.0874	-79.4727	-187.685	-31.4384	-99.7623	-208.667	-25.2894	-49.0434	-209.955	-31.1515	-69.6624	-210.64	-35.818	-91.9019	-227.412	-31.0096	-37.0068	-231.184	-34.579	-48.7047	-238.645	-36.6087	-69.6066	-207.241	-10.1689	-5.82033	-211.904	-1.87368	18.7606	-185.533	-2.31543	2.76207	
230	1.91667	-162.235	-18.033	21.8615	-146.324	-23.3127	1.65541	-132.891	-24.9811	-14.4686	-117.627	-24.0644	-28.2103	-162.469	-20.2551	-44.2938	-157.001	-24.545	-67.4349	-152.608	-25.4467	-88.8164	-189.173	-22.7495	-53.1162	-183.487	-27.5784	-76.9852	-183.518	-32.4659	-103.759	-203.504	-26.7589	-48.4954	-209.75	-31.4695	-66.9065	-205.57	-35.5937	-87.9873	-226.881	-31.7603	-33.7689	-230.629	-36.7218	-54.0419	-236.642	-40.0092	-71.9284	-207.28	-9.98736	-8.60894	-205.696	-4.30694	16.4394	-184.025	-2.71972	4.5912	
231	1.925	-161.939	-19.5368	19.136	-140.78	-22.9964	3.00631	-130.76	-25.1056	-15.2385	-115.32	-25.734	-25.2271	-158.899	-21.7211	-46.1791	-154.48	-24.8819	-65.5183	-152.851	-25.5679	-92.0443	-181.597	-24.2409	-55.4175	-181.13	-30.2144	-79.3728	-182.494	-33.1445	-103.965	-203.863	-27.845	-49.5444	-208.96	-33.6246	-68.0409	-206.2	-37.8664	-89.4527	-221.417	-32.6752	-33.0091	-227.567	-38.0006	-51.742	-233.972	-39.1179	-67.7521	-204.546	-10.526	-7.41059	-206.332	-4.34801	17.1226	-181.673	-4.67638	4.88286	
232	1.93333	-159.657	-19.7264	19.6404	-144.564	-25.0979	1.60955	-129.34	-25.5617	-14.1326	-116.528	-26.9662	-24.3392	-159.057	-21.3217	-47.4708	-151.97	-24.3978	-65.8642	-148.129	-26.3301	-87.1472	-184.144	-24.3946	-56.3873	-179.814	-29.4173	-78.4276	-181.853	-33.031	-99.3621	-206.159	-28.5941	-50.6917	-203.561	-33.5079	-68.8631	-204.953	-37.9779	-91.0489	-220.942	-32.8558	-37.3412	-228.734	-39.1225	-52.7398	-232.983	-41.3097	-72.8231	-202.762	-11.9881	-3.94996	-206.167	-6.06163	18.2356	-180.301	-4.3304	8.26283	
233	1.94167	-160.295	-20.8609	23.5576	-143.671	-25.5862	4.61002	-127.521	-26.3636	-11.5054	-112.959	-24.692	-29.2064	-158.441	-22.2082	-44.8023	-152.735	-24.0863	-67.4912	-150.079	-26.5613	-89.3228	-182.047	-24.5577	-52.6317	-181.417	-28.9528	-74.8748	-182.386	-34.6866	-104.005	-200.853	-27.8565	-45.5888	-206.086	-33.5924	-67.934	-202.336	-37.9066	-93.0271	-220.17	-33.3285	-35.1567	-225.697	-39.3665	-55.0568	-232.153	-42.7763	-69.1002	-206.831	-12.2724	-6.21622	-206.227	-5.96458	18.4953	-180.14	-5.40286	3.13525	
234	1.95	-157.443	-20.043	19.918	-141.406	-26.8305	5.95799	-126.582	-25.9748	-13.6488	-116.178	-27.8891	-27.1475	-156.887	-21.7552	-47.5539	-152.028	-25.2481	-69.336	-146.279	-27.0573	-89.0795	-180.529	-23.6889	-56.4501	-179.027	-29.3726	-79.6638	-180.177	-34.278	-102.166	-201.544	-28.1117	-51.7126	-201.67	-33.6161	-68.6118	-202.966	-39.066	-92.1451	-217.68	-33.4922	-35.4171	-225.783	-38.2588	-52.5307	-230.356	-40.0528	-71.1178	-202.03	-11.9698	-7.54112	-201.892	-4.64019	17.355	-178.3	-4.4362	5.07232	
235	1.95833	-157.633	-21.0139	24.3714	-138.939	-25.9799	5.14763	-124.307	-27.7845	-11.1207	-114.14	-27.8245	-28.2561	-159.054	-21.9989	-47.5392	-152.131	-25.277	-64.9852	-144.838	-27.4549	-90.7037	-182.327	-24.5653	-57.4642	-176.339	-29.3818	-79.7718	-179.591	-33.8313	-102.306	-202.11	-28.5768	-50.7389	-200.756	-33.7792	-70.9771	-202.359	-37.9983	-89.5023	-221.237	-33.3718	-35.9551	-224.577	-38.8696	-54.2606	-228.235	-40.1643	-68.6432	-202.805	-13.4671	-5.86969	-205.722	-6.20885	19.4617	-173.94	-4.01188	3.54248	
236	1.96667	-153.457	-20.9837	23.43	-136.106	-26.7336	6.06375	-122.503	-27.4768	-13.0479	-110.78	-27.9287	-26.4458	-153.731	-22.2553	-49.0613	-151.711	-25.55	-67.058	-146.759	-26.1266	-92.126	-179.181	-23.7063	-52.4733	-178.651	-29.3963	-80.3868	-177.966	-32.9863	-101.304	-198.94	-27.1137	-47.5465	-202.734	-33.2132	-73.0353	-202.287	-37.5256	-92.084	-220.994	-32.1921	-34.4146	-223.631	-37.0637	-55.6218	-226.254	-39.7746	-72.831	-198.475	-11.2093	-4.83816	-203.901	-4.0622	16.9368	-175.577	-4.93489	4.56114	
237	1.975	-157.792	-20.0039	17.8767	-136.724	-24.8349	1.14096	-126.861	-27.7313	-14.7425	-109.918	-27.7244	-26.93	-153.979	-20.9841	-50.1542	-148.663	-24.4678	-65.4715	-147.074	-25.7156	-88.4307	-176.755	-21.9955	-56.1309	-174.805	-27.1338	-78.9021	-178.772	-32.17	-104.088	-199.738	-25.836	-48.6814	-199.836	-30.4905	-69.4355	-198.075	-35.3567	-90.0172	-215.771	-31.1728	-38.4649	-222.726	-35.2499	-51.233	-228.444	-40.9725	-73.6992	-201.363	-12.0044	-6.57764	-200.775	-3.11166	15.0294	-177.433	-2.90323	4.74535	
238	1.98333	-153.256	-18.7136	20.2639	-136.988	-25.4017	4.90827	-121.436	-26.0835	-14.6834	-110.834	-26.25	-27.1674	-152.602	-20.0188	-47.1532	-147.308	-23.5967	-70.5626	-141.535	-24.6405	-89.9758	-177.602	-21.191	-56.7643	-179.106	-26.7718	-80.0641	-176.068	-31.409	-105.088	-197.219	-25.3249	-51.5686	-198.343	-29.7089	-69.1224	-198.836	-34.6467	-90.5943	-218.985	-30.0406	-38.2619	-221.765	-35.2197	-55.599	-228.118	-39.7037	-72.2044	-197.475	-10.6432	-5.35133	-202.553	-2.38551	13.7795	-173.944	-4.21591	7.79022	
239	1.99167	-153.076	-18.7905	21.2811	-138.501	-25.469	2.46043	-123.276	-26.1084	-15.2304	-107.436	-25.8281	-27.6196	-156.033	-19.8211	-48.2729	-146.512	-22.6899	-67.7545	-143.456	-23.3882	-91.5533	-178.28	-20.4495	-56.5133	-179.679	-26.1196	-79.2438	-177.747	-30.7527	-105.669	-199.494	-24.5809	-49.4699	-198.791	-29.5679	-72.8804	-200.848	-34.215	-89.8298	-214.867	-28.9646	-34.7795	-222.955	-34.7822	-57.4327	-225.996	-37.1656	-71.0123	-199.706	-10.8069	-8.96684	-202.625	-1.75778	17.7886	-174.44	-2.42363	4.91848	
240	2	-153.578	-19.692	18.2198	-137.156	-25.7966	5.55059	-122.008	-25.9035	-13.725	-112.026	-26.8036	-28.8258	-156.261	-19.585	-48.5308	-149.503	-21.8641	-72.1628	-143.156	-22.7852	-88.3391	-180.671	-21.1386	-59.8021	-178.953	-24.7527	-76.8252	-176.331	-29.2744	-106.218	-195.934	-24.3254	-51.2386	-198.303	-29.5712	-71.807	-200.329	-33.9778	-94.2888	-220.277	-29.2951	-39.101	-223.574	-34.9006	-55.3496	-225.829	-38.0474	-73.643	-200.962	-8.99872	-7.40767	-199.581	-4.15494	16.0177	-173.311	-1.99082	4.57283	
241	2.00833	-157.51	-19.9136	21.8873	-137.163	-25.5239	3.99312	-121.489	-23.7127	-16.5458	-112.332	-26.2114	-26.8517	-153.951	-18.6745	-47.4878	-148.08	-20.9506	-67.4368	-144.32	-22.6062	-89.1551	-177.318	-18.8467	-56.4217	-175.106	-23.2877	-78.8655	-175.878	-27.6146	-103.727	-197.563	-23.3705	-51.4447	-200.837	-28.7095	-75.3675	-197.606	-34.1849	-95.4357	-219.929	-30.0868	-38.4011	-223.392	-35.8395	-57.8294	-228.391	-39.8954	-73.5192	-200.739	-8.43009	-7.03127	-202.681	-4.25906	17.0928	-176.419	-3.82484	1.41332	
242	2.01667	-154.478	-19.4843	21.0776	-140.354	-24.7895	1.21723	-122.555	-24.3901	-14.4111	-107.577	-24.2162	-27.3168	-152.307	-18.4542	-49.8087	-149.038	-20.5928	-70.1267	-144.667	-21.8052	-91.5174	-178.854	-19.1348	-57.7953	-173.843	-23.0856	-80.6423	-177.142	-26.8306	-102.238	-201.464	-23.2341	-50.5366	-196.423	-28.7579	-73.7658	-199.982	-33.5378	-95.7806	-218.171	-28.8828	-39.1635	-220.045	-34.0632	-57.0546	-228.221	-39.8925	-75.5689	-196.843	-9.25533	-6.99272	-200.549	-4.55267	18.6093	-173.44	-2.46318	2.9522	
243	2.025	-155.904	-19.6822	21.5195	-137.828	-25.151	4.68935	-125.391	-25.6406	-14.9231	-110.575	-25.8978	-26.3291	-155.896	-18.2424	-48.8393	-151.769	-20.9572	-68.5217	-143.68	-21.6344	-90.9284	-177.692	-19.5858	-57.082	-177.856	-22.8437	-79.0859	-179.462	-27.8549	-103.644	-200.354	-24.4952	-47.3873	-196.86	-28.03	-69.5116	-200.276	-34.2026	-95.2676	-218.046	-29.7191	-39.8143	-222.748	-34.3054	-55.8577	-226.064	-40.3058	-73.4667	-196.927	-10.677	-9.62929	-199.017	-3.56053	17.1416	-178.101	-2.91592	4.97571	
244	2.03333	-156.656	-20.71	19.6504	-136.689	-25.127	6.62449	-125.411	-26.3002	-11.9428	-108.654	-26.0605	-27.4987	-155.457	-18.8144	-45.7212	-151.938	-20.5304	-66.5991	-141.566	-22.5895	-88.6611	-177.756	-18.9211	-56.5642	-180.157	-24.108	-77.7905	-179.384	-28.3857	-102.823	-197.89	-24.1471	-49.1319	-198.024	-29.5593	-74.1161	-202.255	-34.4934	-94.0279	-218.146	-29.4667	-36.5647	-223.677	-33.8739	-52.8234	-227.097	-39.0593	-73.1655	-201.596	-10.8162	-5.81338	-200.914	-3.2739	15.3944	-172.66	-4.19164	7.95194	
245	2.04167	-155.305	-20.0204	23.175	-134.355	-24.924	2.1404	-123.245	-26.9671	-11.5634	-111.949	-29.1123	-25.1848	-155.767	-19.5978	-48.3076	-150.391	-22.0459	-68.6449	-142.077	-22.2568	-89.8862	-177.218	-20.0015	-53.0289	-179.415	-24.8766	-77.1412	-180.545	-29.6706	-103.028	-196.671	-24.1378	-49.9579	-200.195	-30.3776	-72.9528	-202.465	-35.142	-90.6269	-219.658	-30.1205	-34.6978	-220.767	-33.9263	-53.4191	-226.13	-38.4461	-73.1197	-199.551	-10.8143	-8.77938	-200.208	-4.44981	16.9062	-172.974	-3.57151	6.67957	
